<svg width="195" height="28" viewBox="0 0 195 28" fill="none" xmlns="http://www.w3.org/2000/svg">
<path d="M60.74 7.79999V21H57.7V14.94L57.8 10.88H57.76L54.5 21H51.72L48.46 10.88H48.42L48.52 14.94V21H45.46V7.79999H50.36L52.44 14.52L53.18 17.32H53.22L53.98 14.54L56.04 7.79999H60.74Z" fill="#1C1D20"/>
<path d="M64.5231 9.83999C63.8298 9.83999 63.3231 9.71332 63.0031 9.45999C62.6964 9.19332 62.5431 8.77999 62.5431 8.21999C62.5431 7.64666 62.6964 7.23332 63.0031 6.97999C63.3231 6.71332 63.8298 6.57999 64.5231 6.57999C65.2031 6.57999 65.7031 6.71332 66.0231 6.97999C66.3431 7.23332 66.5031 7.64666 66.5031 8.21999C66.5031 8.77999 66.3431 9.19332 66.0231 9.45999C65.7031 9.71332 65.2031 9.83999 64.5231 9.83999ZM66.2231 11V21H62.8231V11H66.2231Z" fill="#1C1D20"/>
<path d="M71.4034 6.75999V17.6C71.4034 18.04 71.4767 18.3533 71.6234 18.54C71.7701 18.7267 72.0167 18.82 72.3634 18.82C72.5634 18.82 72.7301 18.8067 72.8634 18.78C72.9967 18.7533 73.1567 18.7133 73.3434 18.66L73.1234 20.7C72.8834 20.8467 72.5701 20.9667 72.1834 21.06C71.7967 21.1533 71.4167 21.2 71.0434 21.2C69.9767 21.2 69.2034 20.9533 68.7234 20.46C68.2434 19.9667 68.0034 19.16 68.0034 18.04V6.75999H71.4034Z" fill="#1C1D20"/>
<path d="M78.7464 10.8C79.7997 10.8 80.7197 11.0067 81.5064 11.42C82.3064 11.82 82.9264 12.4133 83.3664 13.2C83.8197 13.9733 84.0464 14.9067 84.0464 16C84.0464 17.0933 83.8197 18.0333 83.3664 18.82C82.9264 19.5933 82.3064 20.1867 81.5064 20.6C80.7197 21 79.7997 21.2 78.7464 21.2C77.7197 21.2 76.8064 21 76.0064 20.6C75.2064 20.1867 74.5797 19.5933 74.1264 18.82C73.6864 18.0333 73.4664 17.0933 73.4664 16C73.4664 14.9067 73.6864 13.9733 74.1264 13.2C74.5797 12.4133 75.2064 11.82 76.0064 11.42C76.8064 11.0067 77.7197 10.8 78.7464 10.8ZM78.7464 13.22C78.3597 13.22 78.0264 13.3133 77.7464 13.5C77.4664 13.6867 77.253 13.9867 77.1064 14.4C76.9597 14.8133 76.8864 15.3467 76.8864 16C76.8864 16.6533 76.9597 17.1867 77.1064 17.6C77.253 18 77.4664 18.3 77.7464 18.5C78.0264 18.6867 78.3597 18.78 78.7464 18.78C79.1464 18.78 79.4864 18.6867 79.7664 18.5C80.0464 18.3 80.2597 18 80.4064 17.6C80.553 17.1867 80.6264 16.6533 80.6264 16C80.6264 15.3467 80.553 14.8133 80.4064 14.4C80.2597 13.9867 80.0464 13.6867 79.7664 13.5C79.4864 13.3133 79.1464 13.22 78.7464 13.22Z" fill="#1C1D20"/>
<path d="M89.559 21.2C88.559 21.2 87.6257 21.04 86.759 20.72C85.9057 20.3867 85.199 19.9133 84.639 19.3L86.239 17.42C86.5724 17.8467 87.0124 18.2067 87.559 18.5C88.119 18.78 88.739 18.92 89.419 18.92C89.8324 18.92 90.1724 18.86 90.439 18.74C90.7057 18.62 90.839 18.4333 90.839 18.18C90.839 17.9933 90.7724 17.8467 90.639 17.74C90.5057 17.62 90.239 17.52 89.839 17.44L88.439 17.16C87.1857 16.9067 86.2924 16.5333 85.759 16.04C85.239 15.5333 84.979 14.8733 84.979 14.06C84.979 13.5133 85.1457 12.9933 85.479 12.5C85.8124 11.9933 86.3257 11.5867 87.019 11.28C87.7124 10.96 88.599 10.8 89.679 10.8C90.6924 10.8 91.5857 10.9467 92.359 11.24C93.1324 11.5333 93.7457 11.96 94.199 12.52L92.579 14.36C92.259 13.96 91.8457 13.6467 91.339 13.42C90.8324 13.1933 90.3257 13.08 89.819 13.08C89.499 13.08 89.2257 13.1133 88.999 13.18C88.7857 13.2333 88.6257 13.3133 88.519 13.42C88.4124 13.5267 88.359 13.66 88.359 13.82C88.359 13.9933 88.439 14.1467 88.599 14.28C88.7724 14.4 89.0857 14.5067 89.539 14.6L91.359 14.96C92.3857 15.1467 93.1257 15.4867 93.579 15.98C94.0324 16.4733 94.259 17.0667 94.259 17.76C94.259 18.4133 94.0857 19 93.739 19.52C93.3924 20.04 92.8724 20.4533 92.179 20.76C91.4857 21.0533 90.6124 21.2 89.559 21.2ZM93.379 6.23999L91.199 9.69999H87.899L85.719 6.23999H88.179L89.539 8.01999L90.919 6.23999H93.379Z" fill="#1C1D20"/>
<path d="M116.085 7.79999V21H113.045V14.94L113.145 10.88H113.105L109.845 21H107.065L103.805 10.88H103.765L103.865 14.94V21H100.805V7.79999H105.705L107.785 14.52L108.525 17.32H108.565L109.325 14.54L111.385 7.79999H116.085Z" fill="#1C1D20"/>
<path d="M119.868 9.83999C119.175 9.83999 118.668 9.71332 118.348 9.45999C118.042 9.19332 117.888 8.77999 117.888 8.21999C117.888 7.64666 118.042 7.23332 118.348 6.97999C118.668 6.71332 119.175 6.57999 119.868 6.57999C120.548 6.57999 121.048 6.71332 121.368 6.97999C121.688 7.23332 121.848 7.64666 121.848 8.21999C121.848 8.77999 121.688 9.19332 121.368 9.45999C121.048 9.71332 120.548 9.83999 119.868 9.83999ZM121.568 11V21H118.168V11H121.568Z" fill="#1C1D20"/>
<path d="M126.749 6.75999V17.6C126.749 18.04 126.822 18.3533 126.969 18.54C127.115 18.7267 127.362 18.82 127.709 18.82C127.909 18.82 128.075 18.8067 128.209 18.78C128.342 18.7533 128.502 18.7133 128.689 18.66L128.469 20.7C128.229 20.8467 127.915 20.9667 127.529 21.06C127.142 21.1533 126.762 21.2 126.389 21.2C125.322 21.2 124.549 20.9533 124.069 20.46C123.589 19.9667 123.349 19.16 123.349 18.04V6.75999H126.749Z" fill="#1C1D20"/>
<path d="M131.032 9.83999C130.338 9.83999 129.832 9.71332 129.512 9.45999C129.205 9.19332 129.052 8.77999 129.052 8.21999C129.052 7.64666 129.205 7.23332 129.512 6.97999C129.832 6.71332 130.338 6.57999 131.032 6.57999C131.712 6.57999 132.212 6.71332 132.532 6.97999C132.852 7.23332 133.012 7.64666 133.012 8.21999C133.012 8.77999 132.852 9.19332 132.532 9.45999C132.212 9.71332 131.712 9.83999 131.032 9.83999ZM132.732 11V21.56C132.732 22.4667 132.572 23.1933 132.252 23.74C131.945 24.2867 131.505 24.68 130.932 24.92C130.358 25.1733 129.665 25.3 128.852 25.3C128.318 25.3 127.832 25.24 127.392 25.12C126.952 25.0133 126.565 24.86 126.232 24.66L126.712 22.46C126.858 22.5667 127.038 22.6533 127.252 22.72C127.465 22.8 127.712 22.84 127.992 22.84C128.392 22.84 128.712 22.72 128.952 22.48C129.205 22.2533 129.332 21.8467 129.332 21.26V11H132.732Z" fill="#1C1D20"/>
<path d="M140.132 14.66C140.132 14.1933 139.999 13.8267 139.732 13.56C139.479 13.28 139.132 13.14 138.692 13.14C138.252 13.14 137.872 13.2533 137.552 13.48C137.245 13.6933 137.032 14.08 136.912 14.64L134.032 13.96C134.219 13 134.712 12.2333 135.512 11.66C136.312 11.0867 137.439 10.8 138.892 10.8C139.865 10.8 140.692 10.9467 141.372 11.24C142.065 11.52 142.592 11.9467 142.952 12.52C143.325 13.08 143.512 13.7733 143.512 14.6V18.26C143.512 18.78 143.745 19.04 144.212 19.04C144.452 19.04 144.645 19.0133 144.792 18.96L144.592 20.9C144.192 21.0867 143.705 21.18 143.132 21.18C142.612 21.18 142.152 21.1 141.752 20.94C141.352 20.7667 141.039 20.5133 140.812 20.18C140.585 19.8333 140.472 19.4 140.472 18.88V18.76L140.852 18.62C140.852 19.1933 140.679 19.6733 140.332 20.06C139.999 20.4467 139.559 20.7333 139.012 20.92C138.479 21.1067 137.919 21.2 137.332 21.2C136.652 21.2 136.059 21.0933 135.552 20.88C135.045 20.6667 134.652 20.36 134.372 19.96C134.105 19.5467 133.972 19.04 133.972 18.44C133.972 17.72 134.185 17.1267 134.612 16.66C135.052 16.18 135.739 15.8467 136.672 15.66L140.452 14.88L140.432 16.68L138.512 17.08C138.112 17.16 137.812 17.28 137.612 17.44C137.425 17.5867 137.332 17.8133 137.332 18.12C137.332 18.4133 137.439 18.6333 137.652 18.78C137.865 18.9267 138.119 19 138.412 19C138.639 19 138.852 18.9667 139.052 18.9C139.265 18.8333 139.452 18.7333 139.612 18.6C139.772 18.4533 139.899 18.2733 139.992 18.06C140.085 17.8467 140.132 17.5933 140.132 17.3V14.66Z" fill="#1C1D20"/>
<path d="M145.534 21V11H148.574L148.754 14.44L148.374 14.06C148.507 13.34 148.741 12.74 149.074 12.26C149.421 11.78 149.847 11.42 150.354 11.18C150.874 10.9267 151.454 10.8 152.094 10.8C152.787 10.8 153.387 10.9333 153.894 11.2C154.414 11.4667 154.821 11.86 155.114 12.38C155.407 12.9 155.554 13.5533 155.554 14.34V21H152.154V15.24C152.154 14.5467 152.021 14.0667 151.754 13.8C151.487 13.5333 151.147 13.4 150.734 13.4C150.414 13.4 150.114 13.48 149.834 13.64C149.554 13.7867 149.334 14.0267 149.174 14.36C149.014 14.6933 148.934 15.14 148.934 15.7V21H145.534Z" fill="#1C1D20"/>
<path d="M162.096 10.8C163.15 10.8 164.07 11.0067 164.856 11.42C165.656 11.82 166.276 12.4133 166.716 13.2C167.17 13.9733 167.396 14.9067 167.396 16C167.396 17.0933 167.17 18.0333 166.716 18.82C166.276 19.5933 165.656 20.1867 164.856 20.6C164.07 21 163.15 21.2 162.096 21.2C161.07 21.2 160.156 21 159.356 20.6C158.556 20.1867 157.93 19.5933 157.476 18.82C157.036 18.0333 156.816 17.0933 156.816 16C156.816 14.9067 157.036 13.9733 157.476 13.2C157.93 12.4133 158.556 11.82 159.356 11.42C160.156 11.0067 161.07 10.8 162.096 10.8ZM162.096 13.22C161.71 13.22 161.376 13.3133 161.096 13.5C160.816 13.6867 160.603 13.9867 160.456 14.4C160.31 14.8133 160.236 15.3467 160.236 16C160.236 16.6533 160.31 17.1867 160.456 17.6C160.603 18 160.816 18.3 161.096 18.5C161.376 18.6867 161.71 18.78 162.096 18.78C162.496 18.78 162.836 18.6867 163.116 18.5C163.396 18.3 163.61 18 163.756 17.6C163.903 17.1867 163.976 16.6533 163.976 16C163.976 15.3467 163.903 14.8133 163.756 14.4C163.61 13.9867 163.396 13.6867 163.116 13.5C162.836 13.3133 162.496 13.22 162.096 13.22Z" fill="#1C1D20"/>
<path d="M175.033 11H178.553L174.953 21H170.893L167.293 11H170.873L172.933 18.62L175.033 11Z" fill="#1C1D20"/>
<path d="M180.844 9.83999C180.151 9.83999 179.644 9.71332 179.324 9.45999C179.018 9.19332 178.864 8.77999 178.864 8.21999C178.864 7.64666 179.018 7.23332 179.324 6.97999C179.644 6.71332 180.151 6.57999 180.844 6.57999C181.524 6.57999 182.024 6.71332 182.344 6.97999C182.664 7.23332 182.824 7.64666 182.824 8.21999C182.824 8.77999 182.664 9.19332 182.344 9.45999C182.024 9.71332 181.524 9.83999 180.844 9.83999ZM182.544 11V21H179.144V11H182.544Z" fill="#1C1D20"/>
<path d="M189.104 10.8C190.118 10.8 190.958 10.9467 191.624 11.24C192.304 11.52 192.831 11.9 193.204 12.38C193.591 12.8467 193.831 13.3533 193.924 13.9L190.784 14.94C190.691 14.3667 190.518 13.94 190.264 13.66C190.024 13.3667 189.671 13.22 189.204 13.22C188.778 13.22 188.418 13.32 188.124 13.52C187.844 13.7067 187.631 14.0133 187.484 14.44C187.338 14.8533 187.264 15.3867 187.264 16.04C187.264 16.6933 187.344 17.2267 187.504 17.64C187.664 18.04 187.891 18.3333 188.184 18.52C188.478 18.6933 188.824 18.78 189.224 18.78C189.558 18.78 189.831 18.72 190.044 18.6C190.271 18.4667 190.458 18.28 190.604 18.04C190.751 17.8 190.844 17.5067 190.884 17.16L193.944 18.14C193.851 18.7267 193.598 19.2533 193.184 19.72C192.784 20.1733 192.251 20.5333 191.584 20.8C190.918 21.0667 190.138 21.2 189.244 21.2C188.151 21.2 187.198 21 186.384 20.6C185.571 20.1867 184.944 19.5933 184.504 18.82C184.064 18.0333 183.844 17.0933 183.844 16C183.844 14.9067 184.064 13.9733 184.504 13.2C184.944 12.4133 185.558 11.82 186.344 11.42C187.144 11.0067 188.064 10.8 189.104 10.8ZM188.844 6.23999H192.004L189.984 9.69999H187.504L188.844 6.23999Z" fill="#1C1D20"/>
<path fill-rule="evenodd" clip-rule="evenodd" d="M16.9469 24.9278V13.1807L31.6807 1V24.9278H16.9469ZM-0.000398636 24.9278V1L14.7334 13.1807V24.9278H-0.000398636Z" fill="#1C1D20"/>
</svg>
