<svg width="194" height="25" viewBox="0 0 194 25" fill="none" xmlns="http://www.w3.org/2000/svg">
<path d="M60.7404 6.8V20H57.7004V13.94L57.8004 9.88H57.7604L54.5004 20H51.7204L48.4604 9.88H48.4204L48.5204 13.94V20H45.4604V6.8H50.3604L52.4404 13.52L53.1804 16.32H53.2204L53.9804 13.54L56.0404 6.8H60.7404Z" fill="white"/>
<path d="M64.5235 8.84C63.8302 8.84 63.3235 8.71333 63.0035 8.46C62.6969 8.19333 62.5435 7.78 62.5435 7.22C62.5435 6.64667 62.6969 6.23333 63.0035 5.98C63.3235 5.71333 63.8302 5.58 64.5235 5.58C65.2035 5.58 65.7035 5.71333 66.0235 5.98C66.3435 6.23333 66.5035 6.64667 66.5035 7.22C66.5035 7.78 66.3435 8.19333 66.0235 8.46C65.7035 8.71333 65.2035 8.84 64.5235 8.84ZM66.2235 10V20H62.8235V10H66.2235Z" fill="white"/>
<path d="M71.4038 5.76V16.6C71.4038 17.04 71.4772 17.3533 71.6238 17.54C71.7705 17.7267 72.0172 17.82 72.3638 17.82C72.5638 17.82 72.7305 17.8067 72.8638 17.78C72.9972 17.7533 73.1572 17.7133 73.3438 17.66L73.1238 19.7C72.8838 19.8467 72.5705 19.9667 72.1838 20.06C71.7972 20.1533 71.4172 20.2 71.0438 20.2C69.9772 20.2 69.2038 19.9533 68.7238 19.46C68.2438 18.9667 68.0038 18.16 68.0038 17.04V5.76H71.4038Z" fill="white"/>
<path d="M78.7468 9.8C79.8001 9.8 80.7201 10.0067 81.5068 10.42C82.3068 10.82 82.9268 11.4133 83.3668 12.2C83.8201 12.9733 84.0468 13.9067 84.0468 15C84.0468 16.0933 83.8201 17.0333 83.3668 17.82C82.9268 18.5933 82.3068 19.1867 81.5068 19.6C80.7201 20 79.8001 20.2 78.7468 20.2C77.7201 20.2 76.8068 20 76.0068 19.6C75.2068 19.1867 74.5801 18.5933 74.1268 17.82C73.6868 17.0333 73.4668 16.0933 73.4668 15C73.4668 13.9067 73.6868 12.9733 74.1268 12.2C74.5801 11.4133 75.2068 10.82 76.0068 10.42C76.8068 10.0067 77.7201 9.8 78.7468 9.8ZM78.7468 12.22C78.3601 12.22 78.0268 12.3133 77.7468 12.5C77.4668 12.6867 77.2535 12.9867 77.1068 13.4C76.9601 13.8133 76.8868 14.3467 76.8868 15C76.8868 15.6533 76.9601 16.1867 77.1068 16.6C77.2535 17 77.4668 17.3 77.7468 17.5C78.0268 17.6867 78.3601 17.78 78.7468 17.78C79.1468 17.78 79.4868 17.6867 79.7668 17.5C80.0468 17.3 80.2601 17 80.4068 16.6C80.5535 16.1867 80.6268 15.6533 80.6268 15C80.6268 14.3467 80.5535 13.8133 80.4068 13.4C80.2601 12.9867 80.0468 12.6867 79.7668 12.5C79.4868 12.3133 79.1468 12.22 78.7468 12.22Z" fill="white"/>
<path d="M89.5595 20.2C88.5595 20.2 87.6261 20.04 86.7595 19.72C85.9061 19.3867 85.1995 18.9133 84.6395 18.3L86.2395 16.42C86.5728 16.8467 87.0128 17.2067 87.5595 17.5C88.1195 17.78 88.7395 17.92 89.4195 17.92C89.8328 17.92 90.1728 17.86 90.4395 17.74C90.7061 17.62 90.8395 17.4333 90.8395 17.18C90.8395 16.9933 90.7728 16.8467 90.6395 16.74C90.5061 16.62 90.2395 16.52 89.8395 16.44L88.4395 16.16C87.1861 15.9067 86.2928 15.5333 85.7595 15.04C85.2395 14.5333 84.9795 13.8733 84.9795 13.06C84.9795 12.5133 85.1461 11.9933 85.4795 11.5C85.8128 10.9933 86.3261 10.5867 87.0195 10.28C87.7128 9.96 88.5995 9.8 89.6795 9.8C90.6928 9.8 91.5861 9.94667 92.3595 10.24C93.1328 10.5333 93.7461 10.96 94.1995 11.52L92.5795 13.36C92.2595 12.96 91.8461 12.6467 91.3395 12.42C90.8328 12.1933 90.3261 12.08 89.8195 12.08C89.4995 12.08 89.2261 12.1133 88.9995 12.18C88.7861 12.2333 88.6261 12.3133 88.5195 12.42C88.4128 12.5267 88.3595 12.66 88.3595 12.82C88.3595 12.9933 88.4395 13.1467 88.5995 13.28C88.7728 13.4 89.0861 13.5067 89.5395 13.6L91.3595 13.96C92.3861 14.1467 93.1261 14.4867 93.5795 14.98C94.0328 15.4733 94.2595 16.0667 94.2595 16.76C94.2595 17.4133 94.0861 18 93.7395 18.52C93.3928 19.04 92.8728 19.4533 92.1795 19.76C91.4861 20.0533 90.6128 20.2 89.5595 20.2ZM93.3795 5.24L91.1995 8.7H87.8995L85.7195 5.24H88.1795L89.5395 7.02L90.9195 5.24H93.3795Z" fill="white"/>
<path d="M116.086 6.8V20H113.046V13.94L113.146 9.88H113.106L109.846 20H107.066L103.806 9.88H103.766L103.866 13.94V20H100.806V6.8H105.706L107.786 13.52L108.526 16.32H108.566L109.326 13.54L111.386 6.8H116.086Z" fill="white"/>
<path d="M119.869 8.84C119.176 8.84 118.669 8.71333 118.349 8.46C118.042 8.19333 117.889 7.78 117.889 7.22C117.889 6.64667 118.042 6.23333 118.349 5.98C118.669 5.71333 119.176 5.58 119.869 5.58C120.549 5.58 121.049 5.71333 121.369 5.98C121.689 6.23333 121.849 6.64667 121.849 7.22C121.849 7.78 121.689 8.19333 121.369 8.46C121.049 8.71333 120.549 8.84 119.869 8.84ZM121.569 10V20H118.169V10H121.569Z" fill="white"/>
<path d="M126.749 5.76V16.6C126.749 17.04 126.822 17.3533 126.969 17.54C127.116 17.7267 127.362 17.82 127.709 17.82C127.909 17.82 128.076 17.8067 128.209 17.78C128.342 17.7533 128.502 17.7133 128.689 17.66L128.469 19.7C128.229 19.8467 127.916 19.9667 127.529 20.06C127.142 20.1533 126.762 20.2 126.389 20.2C125.322 20.2 124.549 19.9533 124.069 19.46C123.589 18.9667 123.349 18.16 123.349 17.04V5.76H126.749Z" fill="white"/>
<path d="M131.032 8.84C130.339 8.84 129.832 8.71333 129.512 8.46C129.205 8.19333 129.052 7.78 129.052 7.22C129.052 6.64667 129.205 6.23333 129.512 5.98C129.832 5.71333 130.339 5.58 131.032 5.58C131.712 5.58 132.212 5.71333 132.532 5.98C132.852 6.23333 133.012 6.64667 133.012 7.22C133.012 7.78 132.852 8.19333 132.532 8.46C132.212 8.71333 131.712 8.84 131.032 8.84ZM132.732 10V20.56C132.732 21.4667 132.572 22.1933 132.252 22.74C131.945 23.2867 131.505 23.68 130.932 23.92C130.359 24.1733 129.665 24.3 128.852 24.3C128.319 24.3 127.832 24.24 127.392 24.12C126.952 24.0133 126.565 23.86 126.232 23.66L126.712 21.46C126.859 21.5667 127.039 21.6533 127.252 21.72C127.465 21.8 127.712 21.84 127.992 21.84C128.392 21.84 128.712 21.72 128.952 21.48C129.205 21.2533 129.332 20.8467 129.332 20.26V10H132.732Z" fill="white"/>
<path d="M140.132 13.66C140.132 13.1933 139.999 12.8267 139.732 12.56C139.479 12.28 139.132 12.14 138.692 12.14C138.252 12.14 137.872 12.2533 137.552 12.48C137.246 12.6933 137.032 13.08 136.912 13.64L134.032 12.96C134.219 12 134.712 11.2333 135.512 10.66C136.312 10.0867 137.439 9.8 138.892 9.8C139.866 9.8 140.692 9.94667 141.372 10.24C142.066 10.52 142.592 10.9467 142.952 11.52C143.326 12.08 143.512 12.7733 143.512 13.6V17.26C143.512 17.78 143.746 18.04 144.212 18.04C144.452 18.04 144.646 18.0133 144.792 17.96L144.592 19.9C144.192 20.0867 143.706 20.18 143.132 20.18C142.612 20.18 142.152 20.1 141.752 19.94C141.352 19.7667 141.039 19.5133 140.812 19.18C140.586 18.8333 140.472 18.4 140.472 17.88V17.76L140.852 17.62C140.852 18.1933 140.679 18.6733 140.332 19.06C139.999 19.4467 139.559 19.7333 139.012 19.92C138.479 20.1067 137.919 20.2 137.332 20.2C136.652 20.2 136.059 20.0933 135.552 19.88C135.046 19.6667 134.652 19.36 134.372 18.96C134.106 18.5467 133.972 18.04 133.972 17.44C133.972 16.72 134.186 16.1267 134.612 15.66C135.052 15.18 135.739 14.8467 136.672 14.66L140.452 13.88L140.432 15.68L138.512 16.08C138.112 16.16 137.812 16.28 137.612 16.44C137.426 16.5867 137.332 16.8133 137.332 17.12C137.332 17.4133 137.439 17.6333 137.652 17.78C137.866 17.9267 138.119 18 138.412 18C138.639 18 138.852 17.9667 139.052 17.9C139.266 17.8333 139.452 17.7333 139.612 17.6C139.772 17.4533 139.899 17.2733 139.992 17.06C140.086 16.8467 140.132 16.5933 140.132 16.3V13.66Z" fill="white"/>
<path d="M145.534 20V10H148.574L148.754 13.44L148.374 13.06C148.508 12.34 148.741 11.74 149.074 11.26C149.421 10.78 149.848 10.42 150.354 10.18C150.874 9.92667 151.454 9.8 152.094 9.8C152.788 9.8 153.388 9.93333 153.894 10.2C154.414 10.4667 154.821 10.86 155.114 11.38C155.408 11.9 155.554 12.5533 155.554 13.34V20H152.154V14.24C152.154 13.5467 152.021 13.0667 151.754 12.8C151.488 12.5333 151.148 12.4 150.734 12.4C150.414 12.4 150.114 12.48 149.834 12.64C149.554 12.7867 149.334 13.0267 149.174 13.36C149.014 13.6933 148.934 14.14 148.934 14.7V20H145.534Z" fill="white"/>
<path d="M162.097 9.8C163.15 9.8 164.07 10.0067 164.857 10.42C165.657 10.82 166.277 11.4133 166.717 12.2C167.17 12.9733 167.397 13.9067 167.397 15C167.397 16.0933 167.17 17.0333 166.717 17.82C166.277 18.5933 165.657 19.1867 164.857 19.6C164.07 20 163.15 20.2 162.097 20.2C161.07 20.2 160.157 20 159.357 19.6C158.557 19.1867 157.93 18.5933 157.477 17.82C157.037 17.0333 156.817 16.0933 156.817 15C156.817 13.9067 157.037 12.9733 157.477 12.2C157.93 11.4133 158.557 10.82 159.357 10.42C160.157 10.0067 161.07 9.8 162.097 9.8ZM162.097 12.22C161.71 12.22 161.377 12.3133 161.097 12.5C160.817 12.6867 160.603 12.9867 160.457 13.4C160.31 13.8133 160.237 14.3467 160.237 15C160.237 15.6533 160.31 16.1867 160.457 16.6C160.603 17 160.817 17.3 161.097 17.5C161.377 17.6867 161.71 17.78 162.097 17.78C162.497 17.78 162.837 17.6867 163.117 17.5C163.397 17.3 163.61 17 163.757 16.6C163.903 16.1867 163.977 15.6533 163.977 15C163.977 14.3467 163.903 13.8133 163.757 13.4C163.61 12.9867 163.397 12.6867 163.117 12.5C162.837 12.3133 162.497 12.22 162.097 12.22Z" fill="white"/>
<path d="M175.034 10H178.554L174.954 20H170.894L167.294 10H170.874L172.934 17.62L175.034 10Z" fill="white"/>
<path d="M180.845 8.84C180.151 8.84 179.645 8.71333 179.325 8.46C179.018 8.19333 178.865 7.78 178.865 7.22C178.865 6.64667 179.018 6.23333 179.325 5.98C179.645 5.71333 180.151 5.58 180.845 5.58C181.525 5.58 182.025 5.71333 182.345 5.98C182.665 6.23333 182.825 6.64667 182.825 7.22C182.825 7.78 182.665 8.19333 182.345 8.46C182.025 8.71333 181.525 8.84 180.845 8.84ZM182.545 10V20H179.145V10H182.545Z" fill="white"/>
<path d="M189.105 9.8C190.118 9.8 190.958 9.94667 191.625 10.24C192.305 10.52 192.832 10.9 193.205 11.38C193.592 11.8467 193.832 12.3533 193.925 12.9L190.785 13.94C190.692 13.3667 190.518 12.94 190.265 12.66C190.025 12.3667 189.672 12.22 189.205 12.22C188.778 12.22 188.418 12.32 188.125 12.52C187.845 12.7067 187.632 13.0133 187.485 13.44C187.338 13.8533 187.265 14.3867 187.265 15.04C187.265 15.6933 187.345 16.2267 187.505 16.64C187.665 17.04 187.892 17.3333 188.185 17.52C188.478 17.6933 188.825 17.78 189.225 17.78C189.558 17.78 189.832 17.72 190.045 17.6C190.272 17.4667 190.458 17.28 190.605 17.04C190.752 16.8 190.845 16.5067 190.885 16.16L193.945 17.14C193.852 17.7267 193.598 18.2533 193.185 18.72C192.785 19.1733 192.252 19.5333 191.585 19.8C190.918 20.0667 190.138 20.2 189.245 20.2C188.152 20.2 187.198 20 186.385 19.6C185.572 19.1867 184.945 18.5933 184.505 17.82C184.065 17.0333 183.845 16.0933 183.845 15C183.845 13.9067 184.065 12.9733 184.505 12.2C184.945 11.4133 185.558 10.82 186.345 10.42C187.145 10.0067 188.065 9.8 189.105 9.8ZM188.845 5.24H192.005L189.985 8.7H187.505L188.845 5.24Z" fill="white"/>
<path d="M16.9473 23.9278V12.1807L31.6811 0V23.9278H16.9473Z" fill="white"/>
<path d="M0 23.9278V0L14.7338 12.1807V23.9278H0Z" fill="white"/>
</svg>
